<mxfile host="app.diagrams.net" modified="2023-05-19T20:09:24.368Z" agent="Mozilla/5.0 (Macintosh; Intel Mac OS X 10_15_7) AppleWebKit/605.1.15 (KHTML, like Gecko) Version/16.4 Safari/605.1.15" etag="rbD7548mMq5wtm4YTPm6" version="21.3.2" type="device">
  <diagram id="C5RBs43oDa-KdzZeNtuy" name="Page-1">
    <mxGraphModel dx="1251" dy="1005" grid="1" gridSize="10" guides="1" tooltips="1" connect="1" arrows="1" fold="1" page="1" pageScale="1" pageWidth="827" pageHeight="1169" math="0" shadow="0">
      <root>
        <mxCell id="WIyWlLk6GJQsqaUBKTNV-0" />
        <mxCell id="WIyWlLk6GJQsqaUBKTNV-1" parent="WIyWlLk6GJQsqaUBKTNV-0" />
        <mxCell id="LIrD9IL-PiG1GipyZ8ax-28" value="Start" style="ellipse;whiteSpace=wrap;html=1;" parent="WIyWlLk6GJQsqaUBKTNV-1" vertex="1">
          <mxGeometry x="425" y="50" width="120" height="80" as="geometry" />
        </mxCell>
        <mxCell id="dinfa58l4E4D2yqJO3Ic-3" value="Student 1 rolls dice" style="rounded=0;whiteSpace=wrap;html=1;" parent="WIyWlLk6GJQsqaUBKTNV-1" vertex="1">
          <mxGeometry x="425" y="280" width="120" height="60" as="geometry" />
        </mxCell>
        <mxCell id="dinfa58l4E4D2yqJO3Ic-4" value="" style="endArrow=classic;html=1;rounded=0;exitX=0.5;exitY=1;exitDx=0;exitDy=0;entryX=0.5;entryY=0;entryDx=0;entryDy=0;" parent="WIyWlLk6GJQsqaUBKTNV-1" source="EWsRfrBet-x22QwlP8Np-58" target="dinfa58l4E4D2yqJO3Ic-3" edge="1">
          <mxGeometry width="50" height="50" relative="1" as="geometry">
            <mxPoint x="485" y="270" as="sourcePoint" />
            <mxPoint x="385" y="380" as="targetPoint" />
          </mxGeometry>
        </mxCell>
        <mxCell id="dinfa58l4E4D2yqJO3Ic-5" value="Student 2 rolls dice" style="rounded=0;whiteSpace=wrap;html=1;" parent="WIyWlLk6GJQsqaUBKTNV-1" vertex="1">
          <mxGeometry x="425" y="380" width="120" height="60" as="geometry" />
        </mxCell>
        <mxCell id="dinfa58l4E4D2yqJO3Ic-6" value="" style="endArrow=classic;html=1;rounded=0;exitX=0.5;exitY=1;exitDx=0;exitDy=0;" parent="WIyWlLk6GJQsqaUBKTNV-1" source="dinfa58l4E4D2yqJO3Ic-3" target="dinfa58l4E4D2yqJO3Ic-5" edge="1">
          <mxGeometry width="50" height="50" relative="1" as="geometry">
            <mxPoint x="345" y="400" as="sourcePoint" />
            <mxPoint x="395" y="350" as="targetPoint" />
          </mxGeometry>
        </mxCell>
        <mxCell id="dinfa58l4E4D2yqJO3Ic-7" value="Is it a tie?" style="strokeWidth=2;html=1;shape=mxgraph.flowchart.decision;whiteSpace=wrap;" parent="WIyWlLk6GJQsqaUBKTNV-1" vertex="1">
          <mxGeometry x="435" y="470" width="100" height="100" as="geometry" />
        </mxCell>
        <mxCell id="dinfa58l4E4D2yqJO3Ic-8" value="" style="endArrow=classic;html=1;rounded=0;exitX=0.5;exitY=1;exitDx=0;exitDy=0;" parent="WIyWlLk6GJQsqaUBKTNV-1" source="dinfa58l4E4D2yqJO3Ic-5" target="dinfa58l4E4D2yqJO3Ic-7" edge="1">
          <mxGeometry width="50" height="50" relative="1" as="geometry">
            <mxPoint x="595" y="520" as="sourcePoint" />
            <mxPoint x="645" y="470" as="targetPoint" />
          </mxGeometry>
        </mxCell>
        <mxCell id="dinfa58l4E4D2yqJO3Ic-9" value="" style="endArrow=classic;html=1;rounded=0;exitX=1;exitY=0.5;exitDx=0;exitDy=0;exitPerimeter=0;entryX=1;entryY=0.5;entryDx=0;entryDy=0;" parent="WIyWlLk6GJQsqaUBKTNV-1" source="dinfa58l4E4D2yqJO3Ic-7" target="dinfa58l4E4D2yqJO3Ic-3" edge="1">
          <mxGeometry width="50" height="50" relative="1" as="geometry">
            <mxPoint x="575" y="530" as="sourcePoint" />
            <mxPoint x="625" y="480" as="targetPoint" />
            <Array as="points">
              <mxPoint x="605" y="520" />
              <mxPoint x="605" y="310" />
            </Array>
          </mxGeometry>
        </mxCell>
        <mxCell id="dinfa58l4E4D2yqJO3Ic-10" value="Yes" style="edgeLabel;html=1;align=center;verticalAlign=middle;resizable=0;points=[];" parent="dinfa58l4E4D2yqJO3Ic-9" connectable="0" vertex="1">
          <mxGeometry x="-0.8183" y="1" relative="1" as="geometry">
            <mxPoint as="offset" />
          </mxGeometry>
        </mxCell>
        <mxCell id="dinfa58l4E4D2yqJO3Ic-11" value="Does Student 1 get the lowest number?" style="rhombus;whiteSpace=wrap;html=1;" parent="WIyWlLk6GJQsqaUBKTNV-1" vertex="1">
          <mxGeometry x="215" y="560" width="140" height="100" as="geometry" />
        </mxCell>
        <mxCell id="dinfa58l4E4D2yqJO3Ic-12" value="" style="endArrow=classic;html=1;rounded=0;exitX=0;exitY=0.5;exitDx=0;exitDy=0;exitPerimeter=0;entryX=0.5;entryY=0;entryDx=0;entryDy=0;" parent="WIyWlLk6GJQsqaUBKTNV-1" source="dinfa58l4E4D2yqJO3Ic-7" target="dinfa58l4E4D2yqJO3Ic-11" edge="1">
          <mxGeometry width="50" height="50" relative="1" as="geometry">
            <mxPoint x="245" y="480" as="sourcePoint" />
            <mxPoint x="295" y="430" as="targetPoint" />
            <Array as="points">
              <mxPoint x="285" y="520" />
            </Array>
          </mxGeometry>
        </mxCell>
        <mxCell id="dinfa58l4E4D2yqJO3Ic-13" value="No" style="edgeLabel;html=1;align=center;verticalAlign=middle;resizable=0;points=[];" parent="dinfa58l4E4D2yqJO3Ic-12" connectable="0" vertex="1">
          <mxGeometry x="-0.5339" y="1" relative="1" as="geometry">
            <mxPoint as="offset" />
          </mxGeometry>
        </mxCell>
        <mxCell id="dinfa58l4E4D2yqJO3Ic-14" value="Student 1 becomes Player 1, Student 2 becomes Player 2&amp;nbsp;" style="rounded=0;whiteSpace=wrap;html=1;" parent="WIyWlLk6GJQsqaUBKTNV-1" vertex="1">
          <mxGeometry x="425" y="640" width="120" height="60" as="geometry" />
        </mxCell>
        <mxCell id="dinfa58l4E4D2yqJO3Ic-15" value="Student 2 becomes Player 1, Student 1 becomes Player 2&amp;nbsp;" style="rounded=0;whiteSpace=wrap;html=1;" parent="WIyWlLk6GJQsqaUBKTNV-1" vertex="1">
          <mxGeometry x="225" y="720" width="120" height="60" as="geometry" />
        </mxCell>
        <mxCell id="dinfa58l4E4D2yqJO3Ic-16" value="" style="endArrow=classic;html=1;rounded=0;exitX=1;exitY=0.5;exitDx=0;exitDy=0;entryX=0.5;entryY=0;entryDx=0;entryDy=0;" parent="WIyWlLk6GJQsqaUBKTNV-1" source="dinfa58l4E4D2yqJO3Ic-11" target="dinfa58l4E4D2yqJO3Ic-14" edge="1">
          <mxGeometry width="50" height="50" relative="1" as="geometry">
            <mxPoint x="405" y="630" as="sourcePoint" />
            <mxPoint x="455" y="580" as="targetPoint" />
            <Array as="points">
              <mxPoint x="485" y="610" />
            </Array>
          </mxGeometry>
        </mxCell>
        <mxCell id="dinfa58l4E4D2yqJO3Ic-17" value="Yes" style="edgeLabel;html=1;align=center;verticalAlign=middle;resizable=0;points=[];" parent="dinfa58l4E4D2yqJO3Ic-16" connectable="0" vertex="1">
          <mxGeometry x="-0.3121" relative="1" as="geometry">
            <mxPoint as="offset" />
          </mxGeometry>
        </mxCell>
        <mxCell id="dinfa58l4E4D2yqJO3Ic-18" value="" style="endArrow=classic;html=1;rounded=0;exitX=0.5;exitY=1;exitDx=0;exitDy=0;entryX=0.5;entryY=0;entryDx=0;entryDy=0;" parent="WIyWlLk6GJQsqaUBKTNV-1" source="dinfa58l4E4D2yqJO3Ic-11" target="dinfa58l4E4D2yqJO3Ic-15" edge="1">
          <mxGeometry width="50" height="50" relative="1" as="geometry">
            <mxPoint x="445" y="820" as="sourcePoint" />
            <mxPoint x="495" y="770" as="targetPoint" />
          </mxGeometry>
        </mxCell>
        <mxCell id="dinfa58l4E4D2yqJO3Ic-19" value="No" style="edgeLabel;html=1;align=center;verticalAlign=middle;resizable=0;points=[];" parent="dinfa58l4E4D2yqJO3Ic-18" connectable="0" vertex="1">
          <mxGeometry x="-0.1828" y="1" relative="1" as="geometry">
            <mxPoint as="offset" />
          </mxGeometry>
        </mxCell>
        <mxCell id="dinfa58l4E4D2yqJO3Ic-20" value="" style="endArrow=none;html=1;rounded=0;exitX=0.5;exitY=1;exitDx=0;exitDy=0;entryX=0.5;entryY=1;entryDx=0;entryDy=0;" parent="WIyWlLk6GJQsqaUBKTNV-1" source="dinfa58l4E4D2yqJO3Ic-15" target="dinfa58l4E4D2yqJO3Ic-14" edge="1">
          <mxGeometry width="50" height="50" relative="1" as="geometry">
            <mxPoint x="375" y="860" as="sourcePoint" />
            <mxPoint x="425" y="810" as="targetPoint" />
            <Array as="points">
              <mxPoint x="285" y="830" />
              <mxPoint x="485" y="830" />
            </Array>
          </mxGeometry>
        </mxCell>
        <mxCell id="dinfa58l4E4D2yqJO3Ic-24" value="&lt;font style=&quot;font-size: 12px;&quot;&gt;Initialize player 1 score to 0&lt;/font&gt;&lt;span style=&quot;font-size: medium; text-align: start;&quot;&gt;&lt;/span&gt;" style="rounded=0;whiteSpace=wrap;html=1;" parent="WIyWlLk6GJQsqaUBKTNV-1" vertex="1">
          <mxGeometry x="319" y="973" width="120" height="55" as="geometry" />
        </mxCell>
        <mxCell id="dinfa58l4E4D2yqJO3Ic-30" value="Initialize player 2 score to 0&lt;span style=&quot;font-size: medium; text-align: start;&quot;&gt;&lt;/span&gt;" style="rounded=0;whiteSpace=wrap;html=1;" parent="WIyWlLk6GJQsqaUBKTNV-1" vertex="1">
          <mxGeometry x="319" y="1060" width="120" height="55" as="geometry" />
        </mxCell>
        <mxCell id="dinfa58l4E4D2yqJO3Ic-32" value="Initialize tie count &lt;br&gt;to 0" style="rounded=0;whiteSpace=wrap;html=1;" parent="WIyWlLk6GJQsqaUBKTNV-1" vertex="1">
          <mxGeometry x="319" y="880" width="120" height="55" as="geometry" />
        </mxCell>
        <mxCell id="dinfa58l4E4D2yqJO3Ic-34" value="&lt;div style=&quot;&quot;&gt;Player 1 makes 4 throw attempts&lt;br&gt;&lt;/div&gt;" style="rounded=0;whiteSpace=wrap;html=1;align=center;" parent="WIyWlLk6GJQsqaUBKTNV-1" vertex="1">
          <mxGeometry x="319" y="1150" width="120" height="55" as="geometry" />
        </mxCell>
        <mxCell id="dinfa58l4E4D2yqJO3Ic-36" value="&lt;div style=&quot;&quot;&gt;Player 2 makes 4 throw attempts&lt;br&gt;&lt;/div&gt;" style="rounded=0;whiteSpace=wrap;html=1;align=center;" parent="WIyWlLk6GJQsqaUBKTNV-1" vertex="1">
          <mxGeometry x="319" y="1240" width="120" height="55" as="geometry" />
        </mxCell>
        <mxCell id="dinfa58l4E4D2yqJO3Ic-42" value="Increase tie count&lt;span style=&quot;font-size: medium; text-align: start;&quot;&gt;&lt;/span&gt;" style="rounded=0;whiteSpace=wrap;html=1;" parent="WIyWlLk6GJQsqaUBKTNV-1" vertex="1">
          <mxGeometry x="448" y="1450" width="120" height="30" as="geometry" />
        </mxCell>
        <mxCell id="EWsRfrBet-x22QwlP8Np-58" value="Declare Student 1 and Student 2" style="rounded=0;whiteSpace=wrap;html=1;" vertex="1" parent="WIyWlLk6GJQsqaUBKTNV-1">
          <mxGeometry x="425" y="180" width="120" height="60" as="geometry" />
        </mxCell>
        <mxCell id="EWsRfrBet-x22QwlP8Np-59" value="" style="endArrow=classic;html=1;rounded=0;exitX=0.5;exitY=1;exitDx=0;exitDy=0;entryX=0.5;entryY=0;entryDx=0;entryDy=0;" edge="1" parent="WIyWlLk6GJQsqaUBKTNV-1" source="LIrD9IL-PiG1GipyZ8ax-28" target="EWsRfrBet-x22QwlP8Np-58">
          <mxGeometry width="50" height="50" relative="1" as="geometry">
            <mxPoint x="380" y="260" as="sourcePoint" />
            <mxPoint x="430" y="210" as="targetPoint" />
          </mxGeometry>
        </mxCell>
        <mxCell id="EWsRfrBet-x22QwlP8Np-60" value="" style="endArrow=classic;html=1;rounded=0;entryX=0.5;entryY=0;entryDx=0;entryDy=0;" edge="1" parent="WIyWlLk6GJQsqaUBKTNV-1">
          <mxGeometry width="50" height="50" relative="1" as="geometry">
            <mxPoint x="381" y="830" as="sourcePoint" />
            <mxPoint x="381" y="880" as="targetPoint" />
          </mxGeometry>
        </mxCell>
        <mxCell id="EWsRfrBet-x22QwlP8Np-61" value="" style="endArrow=classic;html=1;rounded=0;exitX=0.5;exitY=1;exitDx=0;exitDy=0;" edge="1" parent="WIyWlLk6GJQsqaUBKTNV-1" source="dinfa58l4E4D2yqJO3Ic-32" target="dinfa58l4E4D2yqJO3Ic-24">
          <mxGeometry width="50" height="50" relative="1" as="geometry">
            <mxPoint x="360" y="1020" as="sourcePoint" />
            <mxPoint x="410" y="970" as="targetPoint" />
          </mxGeometry>
        </mxCell>
        <mxCell id="EWsRfrBet-x22QwlP8Np-62" value="" style="endArrow=classic;html=1;rounded=0;exitX=0.5;exitY=1;exitDx=0;exitDy=0;entryX=0.5;entryY=0;entryDx=0;entryDy=0;" edge="1" parent="WIyWlLk6GJQsqaUBKTNV-1" source="dinfa58l4E4D2yqJO3Ic-24" target="dinfa58l4E4D2yqJO3Ic-30">
          <mxGeometry width="50" height="50" relative="1" as="geometry">
            <mxPoint x="140" y="1050" as="sourcePoint" />
            <mxPoint x="190" y="1000" as="targetPoint" />
          </mxGeometry>
        </mxCell>
        <mxCell id="EWsRfrBet-x22QwlP8Np-64" value="" style="endArrow=classic;html=1;rounded=0;exitX=0.5;exitY=1;exitDx=0;exitDy=0;entryX=0.5;entryY=0;entryDx=0;entryDy=0;" edge="1" parent="WIyWlLk6GJQsqaUBKTNV-1" source="dinfa58l4E4D2yqJO3Ic-30" target="dinfa58l4E4D2yqJO3Ic-34">
          <mxGeometry width="50" height="50" relative="1" as="geometry">
            <mxPoint x="150" y="1140" as="sourcePoint" />
            <mxPoint x="200" y="1090" as="targetPoint" />
          </mxGeometry>
        </mxCell>
        <mxCell id="EWsRfrBet-x22QwlP8Np-65" value="" style="endArrow=classic;html=1;rounded=0;exitX=0.5;exitY=1;exitDx=0;exitDy=0;entryX=0.5;entryY=0;entryDx=0;entryDy=0;" edge="1" parent="WIyWlLk6GJQsqaUBKTNV-1" source="dinfa58l4E4D2yqJO3Ic-34" target="dinfa58l4E4D2yqJO3Ic-36">
          <mxGeometry width="50" height="50" relative="1" as="geometry">
            <mxPoint x="180" y="1310" as="sourcePoint" />
            <mxPoint x="230" y="1260" as="targetPoint" />
          </mxGeometry>
        </mxCell>
        <mxCell id="EWsRfrBet-x22QwlP8Np-66" value="Is there a tie?" style="rhombus;whiteSpace=wrap;html=1;" vertex="1" parent="WIyWlLk6GJQsqaUBKTNV-1">
          <mxGeometry x="319" y="1330" width="120" height="80" as="geometry" />
        </mxCell>
        <mxCell id="EWsRfrBet-x22QwlP8Np-67" value="" style="endArrow=classic;html=1;rounded=0;exitX=0.5;exitY=1;exitDx=0;exitDy=0;entryX=0.5;entryY=0;entryDx=0;entryDy=0;" edge="1" parent="WIyWlLk6GJQsqaUBKTNV-1" source="dinfa58l4E4D2yqJO3Ic-36" target="EWsRfrBet-x22QwlP8Np-66">
          <mxGeometry width="50" height="50" relative="1" as="geometry">
            <mxPoint x="160" y="1370" as="sourcePoint" />
            <mxPoint x="210" y="1320" as="targetPoint" />
          </mxGeometry>
        </mxCell>
        <mxCell id="EWsRfrBet-x22QwlP8Np-68" value="" style="endArrow=classic;html=1;rounded=0;exitX=0;exitY=0.5;exitDx=0;exitDy=0;entryX=0.5;entryY=0;entryDx=0;entryDy=0;" edge="1" parent="WIyWlLk6GJQsqaUBKTNV-1" source="EWsRfrBet-x22QwlP8Np-66" target="EWsRfrBet-x22QwlP8Np-73">
          <mxGeometry width="50" height="50" relative="1" as="geometry">
            <mxPoint x="120" y="1360" as="sourcePoint" />
            <mxPoint x="278" y="1450" as="targetPoint" />
            <Array as="points">
              <mxPoint x="278" y="1370" />
            </Array>
          </mxGeometry>
        </mxCell>
        <mxCell id="EWsRfrBet-x22QwlP8Np-69" value="No" style="edgeLabel;html=1;align=center;verticalAlign=middle;resizable=0;points=[];" vertex="1" connectable="0" parent="EWsRfrBet-x22QwlP8Np-68">
          <mxGeometry x="0.157" relative="1" as="geometry">
            <mxPoint as="offset" />
          </mxGeometry>
        </mxCell>
        <mxCell id="EWsRfrBet-x22QwlP8Np-70" value="" style="endArrow=classic;html=1;rounded=0;exitX=1;exitY=0.5;exitDx=0;exitDy=0;entryX=0.5;entryY=0;entryDx=0;entryDy=0;" edge="1" parent="WIyWlLk6GJQsqaUBKTNV-1" source="EWsRfrBet-x22QwlP8Np-66" target="dinfa58l4E4D2yqJO3Ic-42">
          <mxGeometry width="50" height="50" relative="1" as="geometry">
            <mxPoint x="330" y="1310" as="sourcePoint" />
            <mxPoint x="380" y="1260" as="targetPoint" />
            <Array as="points">
              <mxPoint x="508" y="1370" />
            </Array>
          </mxGeometry>
        </mxCell>
        <mxCell id="EWsRfrBet-x22QwlP8Np-71" value="Yes" style="edgeLabel;html=1;align=center;verticalAlign=middle;resizable=0;points=[];" vertex="1" connectable="0" parent="EWsRfrBet-x22QwlP8Np-70">
          <mxGeometry x="0.3557" y="1" relative="1" as="geometry">
            <mxPoint as="offset" />
          </mxGeometry>
        </mxCell>
        <mxCell id="EWsRfrBet-x22QwlP8Np-72" value="" style="endArrow=classic;html=1;rounded=0;exitX=1;exitY=0.5;exitDx=0;exitDy=0;entryX=1;entryY=0.5;entryDx=0;entryDy=0;" edge="1" parent="WIyWlLk6GJQsqaUBKTNV-1" source="dinfa58l4E4D2yqJO3Ic-42" target="dinfa58l4E4D2yqJO3Ic-24">
          <mxGeometry width="50" height="50" relative="1" as="geometry">
            <mxPoint x="470" y="1160" as="sourcePoint" />
            <mxPoint x="520" y="1110" as="targetPoint" />
            <Array as="points">
              <mxPoint x="600" y="1465" />
              <mxPoint x="600" y="1000" />
            </Array>
          </mxGeometry>
        </mxCell>
        <mxCell id="EWsRfrBet-x22QwlP8Np-77" style="edgeStyle=orthogonalEdgeStyle;rounded=0;orthogonalLoop=1;jettySize=auto;html=1;exitX=0;exitY=0.5;exitDx=0;exitDy=0;entryX=0.5;entryY=0;entryDx=0;entryDy=0;" edge="1" parent="WIyWlLk6GJQsqaUBKTNV-1" source="EWsRfrBet-x22QwlP8Np-73" target="EWsRfrBet-x22QwlP8Np-75">
          <mxGeometry relative="1" as="geometry" />
        </mxCell>
        <mxCell id="EWsRfrBet-x22QwlP8Np-79" value="Yes" style="edgeLabel;html=1;align=center;verticalAlign=middle;resizable=0;points=[];" vertex="1" connectable="0" parent="EWsRfrBet-x22QwlP8Np-77">
          <mxGeometry x="0.1864" relative="1" as="geometry">
            <mxPoint as="offset" />
          </mxGeometry>
        </mxCell>
        <mxCell id="EWsRfrBet-x22QwlP8Np-78" style="edgeStyle=orthogonalEdgeStyle;rounded=0;orthogonalLoop=1;jettySize=auto;html=1;exitX=1;exitY=0.5;exitDx=0;exitDy=0;" edge="1" parent="WIyWlLk6GJQsqaUBKTNV-1" source="EWsRfrBet-x22QwlP8Np-73" target="EWsRfrBet-x22QwlP8Np-76">
          <mxGeometry relative="1" as="geometry" />
        </mxCell>
        <mxCell id="EWsRfrBet-x22QwlP8Np-80" value="No" style="edgeLabel;html=1;align=center;verticalAlign=middle;resizable=0;points=[];" vertex="1" connectable="0" parent="EWsRfrBet-x22QwlP8Np-78">
          <mxGeometry x="0.0909" y="1" relative="1" as="geometry">
            <mxPoint as="offset" />
          </mxGeometry>
        </mxCell>
        <mxCell id="EWsRfrBet-x22QwlP8Np-73" value="Does Player 1 get higher score than Player 2?" style="rhombus;whiteSpace=wrap;html=1;" vertex="1" parent="WIyWlLk6GJQsqaUBKTNV-1">
          <mxGeometry x="193" y="1450" width="170" height="80" as="geometry" />
        </mxCell>
        <mxCell id="EWsRfrBet-x22QwlP8Np-75" value="Player 1 becomes winner, Player 2 becomes loser" style="rounded=0;whiteSpace=wrap;html=1;" vertex="1" parent="WIyWlLk6GJQsqaUBKTNV-1">
          <mxGeometry x="105" y="1580" width="120" height="60" as="geometry" />
        </mxCell>
        <mxCell id="EWsRfrBet-x22QwlP8Np-76" value="Player 2 becomes winner, Player 1 becomes loser" style="rounded=0;whiteSpace=wrap;html=1;" vertex="1" parent="WIyWlLk6GJQsqaUBKTNV-1">
          <mxGeometry x="323" y="1580" width="120" height="60" as="geometry" />
        </mxCell>
        <mxCell id="EWsRfrBet-x22QwlP8Np-81" value="Prize Money = winner&#39;s score - losers score - (0.5 * number of ties)" style="rounded=0;whiteSpace=wrap;html=1;" vertex="1" parent="WIyWlLk6GJQsqaUBKTNV-1">
          <mxGeometry x="220" y="1710" width="120" height="60" as="geometry" />
        </mxCell>
        <mxCell id="EWsRfrBet-x22QwlP8Np-83" value="" style="endArrow=none;html=1;rounded=0;exitX=0.5;exitY=1;exitDx=0;exitDy=0;entryX=0.5;entryY=1;entryDx=0;entryDy=0;" edge="1" parent="WIyWlLk6GJQsqaUBKTNV-1" source="EWsRfrBet-x22QwlP8Np-75" target="EWsRfrBet-x22QwlP8Np-76">
          <mxGeometry width="50" height="50" relative="1" as="geometry">
            <mxPoint x="270" y="1890" as="sourcePoint" />
            <mxPoint x="320" y="1840" as="targetPoint" />
            <Array as="points">
              <mxPoint x="165" y="1680" />
              <mxPoint x="383" y="1680" />
            </Array>
          </mxGeometry>
        </mxCell>
        <mxCell id="EWsRfrBet-x22QwlP8Np-84" value="" style="endArrow=classic;html=1;rounded=0;entryX=0.5;entryY=0;entryDx=0;entryDy=0;" edge="1" parent="WIyWlLk6GJQsqaUBKTNV-1" target="EWsRfrBet-x22QwlP8Np-81">
          <mxGeometry width="50" height="50" relative="1" as="geometry">
            <mxPoint x="280" y="1680" as="sourcePoint" />
            <mxPoint x="320" y="1840" as="targetPoint" />
          </mxGeometry>
        </mxCell>
        <mxCell id="EWsRfrBet-x22QwlP8Np-85" value="Is Prize Money less than 0?" style="rhombus;whiteSpace=wrap;html=1;" vertex="1" parent="WIyWlLk6GJQsqaUBKTNV-1">
          <mxGeometry x="200" y="1810" width="160" height="80" as="geometry" />
        </mxCell>
        <mxCell id="EWsRfrBet-x22QwlP8Np-86" value="" style="endArrow=classic;html=1;rounded=0;exitX=0.5;exitY=1;exitDx=0;exitDy=0;entryX=0.5;entryY=0;entryDx=0;entryDy=0;" edge="1" parent="WIyWlLk6GJQsqaUBKTNV-1" source="EWsRfrBet-x22QwlP8Np-81" target="EWsRfrBet-x22QwlP8Np-85">
          <mxGeometry width="50" height="50" relative="1" as="geometry">
            <mxPoint x="270" y="1890" as="sourcePoint" />
            <mxPoint x="320" y="1840" as="targetPoint" />
          </mxGeometry>
        </mxCell>
        <mxCell id="EWsRfrBet-x22QwlP8Np-87" value="Prize Money = $1" style="rounded=0;whiteSpace=wrap;html=1;" vertex="1" parent="WIyWlLk6GJQsqaUBKTNV-1">
          <mxGeometry x="363" y="1910" width="120" height="60" as="geometry" />
        </mxCell>
        <mxCell id="EWsRfrBet-x22QwlP8Np-88" value="Round the amount of Prize Money up to the nearest whole number" style="rounded=0;whiteSpace=wrap;html=1;" vertex="1" parent="WIyWlLk6GJQsqaUBKTNV-1">
          <mxGeometry x="95" y="1910" width="120" height="60" as="geometry" />
        </mxCell>
        <mxCell id="EWsRfrBet-x22QwlP8Np-89" value="" style="endArrow=classic;html=1;rounded=0;exitX=0;exitY=0.5;exitDx=0;exitDy=0;entryX=0.5;entryY=0;entryDx=0;entryDy=0;" edge="1" parent="WIyWlLk6GJQsqaUBKTNV-1" source="EWsRfrBet-x22QwlP8Np-85" target="EWsRfrBet-x22QwlP8Np-88">
          <mxGeometry width="50" height="50" relative="1" as="geometry">
            <mxPoint x="100" y="1840" as="sourcePoint" />
            <mxPoint x="150" y="1790" as="targetPoint" />
            <Array as="points">
              <mxPoint x="155" y="1850" />
            </Array>
          </mxGeometry>
        </mxCell>
        <mxCell id="EWsRfrBet-x22QwlP8Np-90" value="No" style="edgeLabel;html=1;align=center;verticalAlign=middle;resizable=0;points=[];" vertex="1" connectable="0" parent="EWsRfrBet-x22QwlP8Np-89">
          <mxGeometry x="0.3714" y="2" relative="1" as="geometry">
            <mxPoint as="offset" />
          </mxGeometry>
        </mxCell>
        <mxCell id="EWsRfrBet-x22QwlP8Np-91" value="" style="endArrow=classic;html=1;rounded=0;exitX=1;exitY=0.5;exitDx=0;exitDy=0;entryX=0.5;entryY=0;entryDx=0;entryDy=0;" edge="1" parent="WIyWlLk6GJQsqaUBKTNV-1" source="EWsRfrBet-x22QwlP8Np-85" target="EWsRfrBet-x22QwlP8Np-87">
          <mxGeometry width="50" height="50" relative="1" as="geometry">
            <mxPoint x="270" y="1890" as="sourcePoint" />
            <mxPoint x="320" y="1840" as="targetPoint" />
            <Array as="points">
              <mxPoint x="423" y="1850" />
            </Array>
          </mxGeometry>
        </mxCell>
        <mxCell id="EWsRfrBet-x22QwlP8Np-92" value="Yes" style="edgeLabel;html=1;align=center;verticalAlign=middle;resizable=0;points=[];" vertex="1" connectable="0" parent="EWsRfrBet-x22QwlP8Np-91">
          <mxGeometry x="0.4797" relative="1" as="geometry">
            <mxPoint as="offset" />
          </mxGeometry>
        </mxCell>
        <mxCell id="EWsRfrBet-x22QwlP8Np-93" value="The loser gives the winner the Prize Money" style="rounded=0;whiteSpace=wrap;html=1;" vertex="1" parent="WIyWlLk6GJQsqaUBKTNV-1">
          <mxGeometry x="230" y="2030" width="120" height="60" as="geometry" />
        </mxCell>
        <mxCell id="EWsRfrBet-x22QwlP8Np-95" value="" style="endArrow=none;html=1;rounded=0;exitX=0.5;exitY=1;exitDx=0;exitDy=0;entryX=0.5;entryY=1;entryDx=0;entryDy=0;" edge="1" parent="WIyWlLk6GJQsqaUBKTNV-1" source="EWsRfrBet-x22QwlP8Np-88" target="EWsRfrBet-x22QwlP8Np-87">
          <mxGeometry width="50" height="50" relative="1" as="geometry">
            <mxPoint x="260" y="2030" as="sourcePoint" />
            <mxPoint x="310" y="1980" as="targetPoint" />
            <Array as="points">
              <mxPoint x="155" y="2000" />
              <mxPoint x="423" y="2000" />
            </Array>
          </mxGeometry>
        </mxCell>
        <mxCell id="EWsRfrBet-x22QwlP8Np-96" value="" style="endArrow=classic;html=1;rounded=0;entryX=0.5;entryY=0;entryDx=0;entryDy=0;" edge="1" parent="WIyWlLk6GJQsqaUBKTNV-1" target="EWsRfrBet-x22QwlP8Np-93">
          <mxGeometry width="50" height="50" relative="1" as="geometry">
            <mxPoint x="290" y="2000" as="sourcePoint" />
            <mxPoint x="310" y="1980" as="targetPoint" />
          </mxGeometry>
        </mxCell>
        <mxCell id="EWsRfrBet-x22QwlP8Np-97" value="End" style="ellipse;whiteSpace=wrap;html=1;" vertex="1" parent="WIyWlLk6GJQsqaUBKTNV-1">
          <mxGeometry x="230" y="2130" width="120" height="80" as="geometry" />
        </mxCell>
        <mxCell id="EWsRfrBet-x22QwlP8Np-98" value="" style="endArrow=classic;html=1;rounded=0;exitX=0.5;exitY=1;exitDx=0;exitDy=0;entryX=0.5;entryY=0;entryDx=0;entryDy=0;" edge="1" parent="WIyWlLk6GJQsqaUBKTNV-1" source="EWsRfrBet-x22QwlP8Np-93" target="EWsRfrBet-x22QwlP8Np-97">
          <mxGeometry width="50" height="50" relative="1" as="geometry">
            <mxPoint x="80" y="2200" as="sourcePoint" />
            <mxPoint x="130" y="2150" as="targetPoint" />
          </mxGeometry>
        </mxCell>
        <mxCell id="EWsRfrBet-x22QwlP8Np-100" value="Group 5&lt;br&gt;4&amp;nbsp;Elmar&amp;nbsp;Jafarli&lt;br&gt;5 Hanlun Wang&lt;br&gt;6 Hiran Tiago&amp;nbsp;Lins Borba" style="rounded=1;whiteSpace=wrap;html=1;align=left;" vertex="1" parent="WIyWlLk6GJQsqaUBKTNV-1">
          <mxGeometry x="160" y="220" width="150" height="60" as="geometry" />
        </mxCell>
      </root>
    </mxGraphModel>
  </diagram>
</mxfile>
